# xmcd
#
# Track frame offsets: 
#        150
#        21542
#        48653
#        67484
#        83899
#        102791
#        122668
#        145103
#        168502
#        186460
#        213627
#
# Disc length: 3254 seconds
#
# Revision: 1
# Processed by: cddbd v1.5.2PL0 Copyright (c) Steve Scherf et al.
# Submitted via: ExactAudioCopy v0.99pb3
#
DISCID=ad0cb40b
DTITLE=Death Ambient - Drunken Forest
DYEAR=2007
DGENRE=Jazz
TTITLE0=Lake Chad
TTITLE1=Greenhouse
TTITLE2=Belarus
TTITLE3=A Cocktail of Chemicals
TTITLE4=Thermohaline
TTITLE5=Dead Zone
TTITLE6=Qianwei Sky
TTITLE7=Yellow Rain
TTITLE8=River Tigris
TTITLE9=Drunken Forest
TTITLE10=Coral Necropolis
EXTD=YEAR: 2007
EXTT0=
EXTT1=
EXTT2=
EXTT3=
EXTT4=
EXTT5=
EXTT6=
EXTT7=
EXTT8=
EXTT9=
EXTT10=
PLAYORDER=
